<svg xmlns="http://www.w3.org/2000/svg" version="1.1" xmlns:xlink="http://www.w3.org/1999/xlink" xmlns:svgjs="http://svgjs.dev/svgjs" width="1000" height="1000" viewBox="0 0 1000 1000"><rect width="1000" height="1000" fill="#000000"></rect><g transform="matrix(0.7,0,0,0.7,149.57576156644762,382.70452749063065)"><svg viewBox="0 0 396 133" data-background-color="#b19dd0" preserveAspectRatio="xMidYMid meet" height="335" width="1000" xmlns="http://www.w3.org/2000/svg" xmlns:xlink="http://www.w3.org/1999/xlink"><g id="tight-bounds" transform="matrix(1,0,0,1,0.2399977424096278,0.025790378448277806)"><svg viewBox="0 0 395.52 132.94841924310347" height="132.94841924310347" width="395.52"><g><svg viewBox="0 0 638.1008460314482 214.48851839999998" height="132.94841924310347" width="395.52"><g transform="matrix(1,0,0,1,242.58084603144826,47.745776441379306)"><svg viewBox="0 0 395.52 118.99696551724136" height="118.99696551724136" width="395.52"><g id="textblocktransform"><svg viewBox="0 0 395.52 118.99696551724136" height="118.99696551724136" width="395.52" id="textblock"><g><svg viewBox="0 0 395.52 118.99696551724136" height="118.99696551724136" width="395.52"><g transform="matrix(1,0,0,1,0,0)"><svg width="395.52" viewBox="3.75 -34.900001525878906 115.98999786376953 34.900001525878906" height="118.99696551724136" data-palette-color="#7a26c1"><path d="M26.25 0L3.75 0 3.75-5.55 11.25-5.55 11.25-29.35 3.75-29.35 3.75-34.9 26.25-34.9 26.25-29.35 18.75-29.35 18.75-5.55 26.25-5.55 26.25 0ZM47.95 0L40-23.2 39.45-23.2 39.45 0 33.05 0 33.05-34.9 42.05-34.9 50-11.7 50.55-11.7 50.55-34.9 56.95-34.9 56.95 0 47.95 0ZM63.85 0L63.85-34.9 76.09-34.9Q81.25-34.9 83.97-32.4 86.7-29.9 86.7-25.6L86.7-25.6Q86.7-22.6 85.22-20.83 83.75-19.05 81-18.25L81-18.25 81-17.95Q84.25-17.15 86.02-15.15 87.8-13.15 87.8-9.6L87.8-9.6Q87.8-5.2 85.02-2.6 82.25 0 77.25 0L77.25 0 63.85 0ZM71.15-5.25L74.95-5.25Q77.65-5.25 78.9-6.15 80.15-7.05 80.15-9.45L80.15-9.45 80.15-10.9Q80.15-13.3 78.9-14.2 77.65-15.1 74.95-15.1L74.95-15.1 71.15-15.1 71.15-5.25ZM71.15-20.1L74-20.1Q76.65-20.1 77.84-20.98 79.05-21.85 79.05-24.15L79.05-24.15 79.05-25.65Q79.05-27.95 77.84-28.8 76.65-29.65 74-29.65L74-29.65 71.15-29.65 71.15-20.1ZM119.74 0L111.74 0 109.54-8.4 99.99-8.4 97.84 0 90.24 0 99.69-34.9 110.29-34.9 119.74 0ZM108.39-14.45L104.99-27.65 104.59-27.65 101.19-14.45 108.39-14.45Z" opacity="1" transform="matrix(1,0,0,1,0,0)" fill="#ffffff" class="undefined-text-0" data-fill-palette-color="primary" id="text-0"></path></svg></g></svg></g></svg></g></svg></g><g><svg viewBox="0 0 214.48851839999998 214.48851839999998" height="214.48851839999998" width="214.48851839999998"><g><svg></svg></g><g id="icon-0"><svg viewBox="0 0 214.48851839999998 214.48851839999998" height="214.48851839999998" width="214.48851839999998"><g><rect width="195.02567136" height="195.02567136" x="9.731423519999993" y="9.731423519999993" fill="#ffffff" data-fill-palette-color="accent"></rect><rect width="195.02567136" height="195.02567136" x="19.462847039999993" y="-5.329070518200751e-15" fill="#ffffff" opacity="0.5" data-fill-palette-color="accent"></rect></g><g transform="matrix(1,0,0,1,27.881922471712528,27.80406719999999)"><svg viewBox="0 0 158.72467345657492 158.880384" height="158.880384" width="158.72467345657492"><g><svg xmlns="http://www.w3.org/2000/svg" xmlns:xlink="http://www.w3.org/1999/xlink" version="1.1" x="0" y="0" viewBox="1.6697969436645508 1.6500000953674316 96.63020324707031 96.7249984741211" enable-background="new 0 0 100 100" xml:space="preserve" height="158.880384" width="158.72467345657492" class="icon-s-0" data-fill-palette-color="background" id="s-0"><path d="M64.3 37.9c1.8-1.1 4.8-1.1 6.7 0 1.9 1.1 1.9 2.8 0 3.9-1.8 1.1-4.8 1.1-6.7 0C62.4 40.7 62.4 39 64.3 37.9zM29 21.4c1.9 1.1 4.9 1.1 6.7 0 1.8-1.1 1.8-2.8 0-3.9-1.9-1.1-4.9-1.1-6.7 0C27.2 18.6 27.2 20.3 29 21.4zM1.7 23c-0.2-1.3 0.6-2.6 2.2-3.5L32.2 3c3-1.8 8-1.8 11 0l52.8 30.5c1.5 0.9 2.3 2 2.3 3.1h0v19.8 2.1 19.8l-0.2 0 0.2 0.2-33 19.2c-1.6 0.9-4.1 0.9-5.6 0L58.6 97l-0.8-0.5L1.7 64.1v0-0.4V44.2v-0.5V43 23zM93.5 71.3L65.3 87.7c-0.3 0.2-0.6 0.3-0.9 0.4v4.7l29-16.9V71.3zM93.5 61.4L65.4 77.7c-0.3 0.2-0.6 0.3-0.9 0.4v4.6l29-16.9V61.4zM93.5 51.4L65.3 67.8c-0.3 0.2-0.6 0.3-0.9 0.4v4.7l29-16.9V51.4zM93.5 41.4L67.8 56.3c-1 0.6-2.1 0.9-3.4 1.1v5.4l29-16.9V41.4zM15.4 25.8c-0.4 0.2-0.7 0.4-1.1 0.5l41 23.7c0.2-0.1 0.4-0.3 0.6-0.4 3.1-1.8 8.1-1.8 11.2 0 0.5 0.3 0.9 0.6 1.2 0.9l17.1-9.9c-0.6-0.2-1.1-0.4-1.6-0.7-3.1-1.8-3.1-4.7 0-6.5 0.5-0.3 1-0.5 1.5-0.7L44.2 9c-0.3 0.2-0.6 0.4-0.9 0.7-3.1 1.8-8.1 1.8-11.2 0-0.3-0.2-0.6-0.4-0.9-0.6l-16.9 9.8c0.4 0.2 0.7 0.3 1.1 0.5C18.5 21.2 18.5 24.1 15.4 25.8zM6.6 31.7l53 30.6v-4.9c-1-0.2-2-0.6-2.8-1l-50.2-29V31.7zM6.6 41.6l53 30.6v-4.5l-1-0.6-0.8-0.5L6.6 37.1V41.6zM6.6 51.6l53 30.6v-4.6l-0.9-0.5-0.8-0.5L6.6 47V51.6zM6.6 61.5l53 30.6v-4.5l-1-0.6-0.8-0.5L6.6 57V61.5zM37.9 22.6c6.6-3.9 17.5-3.9 24.2 0 6.7 3.9 6.7 10.1 0.1 14-6.6 3.9-17.5 3.9-24.2 0C31.3 32.7 31.2 26.5 37.9 22.6zM51.6 27.6l-3.2-1.8c-0.9 0.4-1.9 0.8-2.8 1.3-0.9 0.5-1.7 1.1-2.3 1.6l3.2 1.8L51.6 27.6zM48.4 31.6l3.2 1.8c0.9-0.4 1.9-0.8 2.8-1.3 0.9-0.5 1.7-1.1 2.3-1.6l-3.2-1.8L48.4 31.6zM42.1 30c-1.3 1.6-1.5 3-1.5 4l4.2-2.5L42.1 30zM42.3 35.1c1.8 0 4.3-0.2 7-0.9l-2.7-1.6L42.3 35.1zM53.6 36.7l-2.4-1.4c-2.1 0.6-4.1 1-5.8 1.1C48 37.1 50.9 37.1 53.6 36.7zM61.2 33.1l-2.7-1.6c-0.7 0.5-1.4 1.1-2.3 1.6-0.9 0.5-1.8 1-2.8 1.4l2.7 1.6c1.1-0.3 2-0.7 2.9-1.3C59.9 34.3 60.7 33.7 61.2 33.1zM59.9 30.3l2.4 1.4c0.8-1.6 0.6-3.2-0.4-4.8C61.5 27.9 61 29 59.9 30.3zM59.5 25.1l-4.2 2.5 2.7 1.6C59.2 27.6 59.5 26.1 59.5 25.1zM57.7 24.1c-1.8 0-4.3 0.2-7 0.9l2.7 1.6L57.7 24.1zM46.4 22.5l2.4 1.4c2.1-0.6 4.1-1 5.8-1.1C52 22.1 49.1 22.1 46.4 22.5zM38.8 26.1l2.7 1.6c0.7-0.5 1.4-1.1 2.3-1.6 0.9-0.5 1.8-1 2.8-1.4l-2.7-1.6c-1 0.3-2 0.8-2.9 1.3C40.1 24.9 39.3 25.5 38.8 26.1zM38.2 32.3c0.3-1 0.9-2.2 2-3.4l-2.4-1.4C37 29.1 37.1 30.8 38.2 32.3z" fill="#b19dd0" data-fill-palette-color="background"></path></svg></g></svg></g></svg></g></svg></g></svg></g><defs></defs></svg><rect width="395.52" height="132.94841924310347" fill="none" stroke="none" visibility="hidden"></rect></g></svg></g></svg>